M48
METRIC,LZ,000.000
;FILE_FORMAT=3:3
;TYPE=PLATED
;Layer: PTH_Through
;EasyEDA v6.5.48, 2025-03-12 00:12:57
;549dcaa0f3144c7bb9172a23e6edd774,878c4c1e0da8487e804687d0af4422f9,10
;Gerber Generator version 0.2
;Holesize 1 = 0.889 mm
T01C0.889
;Holesize 2 = 0.901 mm
T02C0.901
;Holesize 3 = 0.966 mm
T03C0.966
;Holesize 4 = 1.000 mm
T04C1.000
;Holesize 5 = 1.200 mm
T05C1.200
%
G05
G90
T01
X031369Y022860
X028829Y022860
X026289Y022860
X023749Y022860
X021209Y022860
X018669Y022860
X028829Y047244
X026289Y047244
X023749Y047244
X021209Y047244
T02
X007239Y002540
X009779Y017780
X014859Y017780
X019939Y017780
X025019Y017780
X030099Y017780
X035179Y017780
X040259Y017780
X042799Y002540
X037719Y002540
X032639Y002540
X027559Y002540
X022479Y002540
X017399Y002540
X012319Y002540
X009779Y002540
X014859Y002540
X019939Y002540
X025019Y002540
X030099Y002540
X035179Y002540
X040259Y002540
X042799Y017780
X037719Y017780
X032639Y017780
X027559Y017780
X022479Y017780
X017399Y017780
X012319Y017780
X007239Y017780
X038862Y040132
T03
X041402Y040132
T04
X004953Y031496
X015113Y031496
X035052Y031496
X045212Y031496
X019304Y010160
X009144Y010160
T05
X012783Y038505
X007283Y038505
X012783Y041505
X007283Y041505
M30
