G04 Layer: TopLayer*
G04 EasyEDA v6.5.48, 2025-03-12 00:12:57*
G04 549dcaa0f3144c7bb9172a23e6edd774,878c4c1e0da8487e804687d0af4422f9,10*
G04 Gerber Generator version 0.2*
G04 Scale: 100 percent, Rotated: No, Reflected: No *
G04 Dimensions in millimeters *
G04 leading zeros omitted , absolute positions ,4 integer and 5 decimal *
%FSLAX45Y45*%
%MOMM*%

%ADD10O,1.5999968X2.4999949999999997*%
%ADD11O,2.4999949999999997X1.9999959999999999*%
%ADD12R,1.6000X2.5000*%
%ADD13R,2.0000X2.5000*%
%ADD14O,1.9999959999999999X2.4999949999999997*%
%ADD15C,2.5000*%

%LPD*%
D10*
G01*
X723900Y254000D03*
G01*
X977900Y1778000D03*
G01*
X1485900Y1778000D03*
G01*
X1993900Y1778000D03*
G01*
X2501900Y1778000D03*
G01*
X3009900Y1778000D03*
G01*
X3517900Y1778000D03*
G01*
X4025900Y1778000D03*
G01*
X4279900Y254000D03*
G01*
X3771900Y254000D03*
G01*
X3263900Y254000D03*
G01*
X2755900Y254000D03*
G01*
X2247900Y254000D03*
G01*
X1739900Y254000D03*
G01*
X1231900Y254000D03*
G01*
X977900Y254000D03*
G01*
X1485900Y254000D03*
G01*
X1993900Y254000D03*
G01*
X2501900Y254000D03*
G01*
X3009900Y254000D03*
G01*
X3517900Y254000D03*
G01*
X4025900Y254000D03*
G01*
X4279900Y1778000D03*
G01*
X3771900Y1778000D03*
G01*
X3263900Y1778000D03*
G01*
X2755900Y1778000D03*
G01*
X2247900Y1778000D03*
G01*
X1739900Y1778000D03*
G01*
X1231900Y1778000D03*
G01*
X723900Y1778000D03*
D11*
G01*
X1278305Y3850512D03*
G01*
X728294Y3850512D03*
G01*
X1278305Y4150512D03*
G01*
X728294Y4150512D03*
D10*
G01*
X3136900Y2286000D03*
G01*
X2882900Y2286000D03*
G01*
X2628900Y2286000D03*
G01*
X2374900Y2286000D03*
G01*
X2120900Y2286000D03*
D12*
G01*
X1866900Y2286000D03*
D13*
G01*
X2882900Y4724400D03*
D10*
G01*
X2628900Y4724400D03*
G01*
X2374900Y4724400D03*
G01*
X2120900Y4724400D03*
D14*
G01*
X4140200Y4013200D03*
G01*
X3886200Y4013200D03*
D15*
G01*
X495300Y3149600D03*
G01*
X1511300Y3149600D03*
G01*
X3505200Y3149600D03*
G01*
X4521200Y3149600D03*
G01*
X1930400Y1016000D03*
G01*
X914400Y1016000D03*
M02*
