G04 Layer: TopSilkscreenLayer*
G04 EasyEDA v6.5.48, 2025-03-12 00:12:57*
G04 549dcaa0f3144c7bb9172a23e6edd774,878c4c1e0da8487e804687d0af4422f9,10*
G04 Gerber Generator version 0.2*
G04 Scale: 100 percent, Rotated: No, Reflected: No *
G04 Dimensions in millimeters *
G04 leading zeros omitted , absolute positions ,4 integer and 5 decimal *
%FSLAX45Y45*%
%MOMM*%

%ADD10C,0.1524*%
%ADD11C,0.1500*%
%ADD12C,0.1520*%
%ADD13C,0.2540*%
%ADD14C,0.2032*%
%ADD15C,0.2030*%
%ADD16C,0.0117*%

%LPD*%
D10*
X328168Y2089150D02*
G01*
X328168Y1980184D01*
X328168Y2089150D02*
G01*
X400812Y1980184D01*
X400812Y2089150D02*
G01*
X400812Y1980184D01*
X476757Y2089150D02*
G01*
X435102Y1980184D01*
X476757Y2089150D02*
G01*
X518413Y1980184D01*
X450850Y2016505D02*
G01*
X502665Y2016505D01*
X552704Y2089150D02*
G01*
X552704Y1980184D01*
X552704Y2089150D02*
G01*
X625347Y1980184D01*
X625347Y2089150D02*
G01*
X625347Y1980184D01*
X690879Y2089150D02*
G01*
X680465Y2084070D01*
X670052Y2073655D01*
X664718Y2063242D01*
X659637Y2047494D01*
X659637Y2021586D01*
X664718Y2006092D01*
X670052Y1995678D01*
X680465Y1985263D01*
X690879Y1980184D01*
X711707Y1980184D01*
X721868Y1985263D01*
X732281Y1995678D01*
X737615Y2006092D01*
X742695Y2021586D01*
X742695Y2047494D01*
X737615Y2063242D01*
X732281Y2073655D01*
X721868Y2084070D01*
X711707Y2089150D01*
X690879Y2089150D01*
D11*
X4325937Y1615005D02*
G01*
X4230433Y1615005D01*
X4325937Y1615005D02*
G01*
X4325937Y1583255D01*
X4321365Y1569539D01*
X4312475Y1560395D01*
X4303331Y1555823D01*
X4289615Y1551251D01*
X4267009Y1551251D01*
X4253293Y1555823D01*
X4244149Y1560395D01*
X4235005Y1569539D01*
X4230433Y1583255D01*
X4230433Y1615005D01*
X4307903Y1521279D02*
G01*
X4312475Y1512389D01*
X4325937Y1498673D01*
X4230433Y1498673D01*
X4325937Y1459557D02*
G01*
X4325937Y1409519D01*
X4289615Y1436697D01*
X4289615Y1423235D01*
X4285043Y1414091D01*
X4280471Y1409519D01*
X4267009Y1404947D01*
X4257865Y1404947D01*
X4244149Y1409519D01*
X4235005Y1418663D01*
X4230433Y1432379D01*
X4230433Y1445841D01*
X4235005Y1459557D01*
X4239577Y1464129D01*
X4248721Y1468701D01*
X4071942Y1605866D02*
G01*
X4071942Y1555828D01*
X4035620Y1583260D01*
X4035620Y1569544D01*
X4031048Y1560400D01*
X4026476Y1555828D01*
X4013014Y1551256D01*
X4003870Y1551256D01*
X3990154Y1555828D01*
X3981010Y1564972D01*
X3976438Y1578688D01*
X3976438Y1592404D01*
X3981010Y1605866D01*
X3985582Y1610438D01*
X3994726Y1615010D01*
X4071942Y1521284D02*
G01*
X3976438Y1484962D01*
X4071942Y1448640D02*
G01*
X3976438Y1484962D01*
X4071942Y1409524D02*
G01*
X4071942Y1359486D01*
X4035620Y1386918D01*
X4035620Y1373202D01*
X4031048Y1364058D01*
X4026476Y1359486D01*
X4013014Y1354914D01*
X4003870Y1354914D01*
X3990154Y1359486D01*
X3981010Y1368630D01*
X3976438Y1382346D01*
X3976438Y1395808D01*
X3981010Y1409524D01*
X3985582Y1414096D01*
X3994726Y1418668D01*
X3817942Y1615010D02*
G01*
X3722438Y1615010D01*
X3817942Y1615010D02*
G01*
X3817942Y1574116D01*
X3813370Y1560400D01*
X3808798Y1555828D01*
X3799908Y1551256D01*
X3790764Y1551256D01*
X3781620Y1555828D01*
X3777048Y1560400D01*
X3772476Y1574116D01*
X3772476Y1615010D01*
X3772476Y1583260D02*
G01*
X3722438Y1551256D01*
X3817942Y1521284D02*
G01*
X3722438Y1521284D01*
X3817942Y1521284D02*
G01*
X3817942Y1462356D01*
X3772476Y1521284D02*
G01*
X3772476Y1484962D01*
X3722438Y1521284D02*
G01*
X3722438Y1462356D01*
X3817942Y1432384D02*
G01*
X3722438Y1432384D01*
X3817942Y1432384D02*
G01*
X3817942Y1373202D01*
X3772476Y1432384D02*
G01*
X3772476Y1395808D01*
X3563940Y1578686D02*
G01*
X3468436Y1615008D01*
X3563940Y1578686D02*
G01*
X3468436Y1542364D01*
X3500440Y1601292D02*
G01*
X3500440Y1555826D01*
X3563940Y1484960D02*
G01*
X3559368Y1498676D01*
X3545906Y1507820D01*
X3523046Y1512392D01*
X3509584Y1512392D01*
X3486724Y1507820D01*
X3473008Y1498676D01*
X3468436Y1484960D01*
X3468436Y1475816D01*
X3473008Y1462354D01*
X3486724Y1453210D01*
X3509584Y1448638D01*
X3523046Y1448638D01*
X3545906Y1453210D01*
X3559368Y1462354D01*
X3563940Y1475816D01*
X3563940Y1484960D01*
X3309942Y1578688D02*
G01*
X3214438Y1615010D01*
X3309942Y1578688D02*
G01*
X3214438Y1542366D01*
X3246442Y1601294D02*
G01*
X3246442Y1555828D01*
X3291908Y1512394D02*
G01*
X3296480Y1503250D01*
X3309942Y1489534D01*
X3214438Y1489534D01*
X3055940Y1578686D02*
G01*
X2960436Y1615008D01*
X3055940Y1578686D02*
G01*
X2960436Y1542364D01*
X2992440Y1601292D02*
G01*
X2992440Y1555826D01*
X3033334Y1507820D02*
G01*
X3037906Y1507820D01*
X3046796Y1503248D01*
X3051368Y1498676D01*
X3055940Y1489532D01*
X3055940Y1471498D01*
X3051368Y1462354D01*
X3046796Y1457782D01*
X3037906Y1453210D01*
X3028762Y1453210D01*
X3019618Y1457782D01*
X3005902Y1466926D01*
X2960436Y1512392D01*
X2960436Y1448638D01*
X2801940Y1578686D02*
G01*
X2706436Y1615008D01*
X2801940Y1578686D02*
G01*
X2706436Y1542364D01*
X2738440Y1601292D02*
G01*
X2738440Y1555826D01*
X2801940Y1503248D02*
G01*
X2801940Y1453210D01*
X2765618Y1480388D01*
X2765618Y1466926D01*
X2761046Y1457782D01*
X2756474Y1453210D01*
X2743012Y1448638D01*
X2733868Y1448638D01*
X2720152Y1453210D01*
X2711008Y1462354D01*
X2706436Y1475816D01*
X2706436Y1489532D01*
X2711008Y1503248D01*
X2715580Y1507820D01*
X2724724Y1512392D01*
X2547937Y1578683D02*
G01*
X2452433Y1615005D01*
X2547937Y1578683D02*
G01*
X2452433Y1542361D01*
X2484437Y1601289D02*
G01*
X2484437Y1555823D01*
X2547937Y1466923D02*
G01*
X2484437Y1512389D01*
X2484437Y1444063D01*
X2547937Y1466923D02*
G01*
X2452433Y1466923D01*
X2293940Y1578686D02*
G01*
X2198436Y1615008D01*
X2293940Y1578686D02*
G01*
X2198436Y1542364D01*
X2230440Y1601292D02*
G01*
X2230440Y1555826D01*
X2293940Y1457782D02*
G01*
X2293940Y1503248D01*
X2253046Y1507820D01*
X2257618Y1503248D01*
X2262190Y1489532D01*
X2262190Y1475816D01*
X2257618Y1462354D01*
X2248474Y1453210D01*
X2235012Y1448638D01*
X2225868Y1448638D01*
X2212152Y1453210D01*
X2203008Y1462354D01*
X2198436Y1475816D01*
X2198436Y1489532D01*
X2203008Y1503248D01*
X2207580Y1507820D01*
X2216724Y1512392D01*
X2039937Y1578683D02*
G01*
X1944433Y1615005D01*
X2039937Y1578683D02*
G01*
X1944433Y1542361D01*
X1976437Y1601289D02*
G01*
X1976437Y1555823D01*
X2026475Y1457779D02*
G01*
X2035365Y1462351D01*
X2039937Y1475813D01*
X2039937Y1484957D01*
X2035365Y1498673D01*
X2021903Y1507817D01*
X1999043Y1512389D01*
X1976437Y1512389D01*
X1958149Y1507817D01*
X1949005Y1498673D01*
X1944433Y1484957D01*
X1944433Y1480385D01*
X1949005Y1466923D01*
X1958149Y1457779D01*
X1971865Y1453207D01*
X1976437Y1453207D01*
X1989899Y1457779D01*
X1999043Y1466923D01*
X2003615Y1480385D01*
X2003615Y1484957D01*
X1999043Y1498673D01*
X1989899Y1507817D01*
X1976437Y1512389D01*
X1785940Y1578686D02*
G01*
X1690436Y1615008D01*
X1785940Y1578686D02*
G01*
X1690436Y1542364D01*
X1722440Y1601292D02*
G01*
X1722440Y1555826D01*
X1785940Y1448638D02*
G01*
X1690436Y1494104D01*
X1785940Y1512392D02*
G01*
X1785940Y1448638D01*
X1531940Y1560398D02*
G01*
X1531940Y1605864D01*
X1491046Y1610436D01*
X1495618Y1605864D01*
X1500190Y1592402D01*
X1500190Y1578686D01*
X1495618Y1564970D01*
X1486474Y1555826D01*
X1473012Y1551254D01*
X1463868Y1551254D01*
X1450152Y1555826D01*
X1441008Y1564970D01*
X1436436Y1578686D01*
X1436436Y1592402D01*
X1441008Y1605864D01*
X1445580Y1610436D01*
X1454724Y1615008D01*
X1531940Y1521282D02*
G01*
X1436436Y1484960D01*
X1531940Y1448638D02*
G01*
X1436436Y1484960D01*
X1277942Y1615010D02*
G01*
X1182438Y1615010D01*
X1277942Y1615010D02*
G01*
X1277942Y1574116D01*
X1273370Y1560400D01*
X1268798Y1555828D01*
X1259908Y1551256D01*
X1250764Y1551256D01*
X1241620Y1555828D01*
X1237048Y1560400D01*
X1232476Y1574116D01*
X1232476Y1615010D01*
X1232476Y1583260D02*
G01*
X1182438Y1551256D01*
X1264480Y1457784D02*
G01*
X1273370Y1466928D01*
X1277942Y1480390D01*
X1277942Y1498678D01*
X1273370Y1512394D01*
X1264480Y1521284D01*
X1255336Y1521284D01*
X1246192Y1516712D01*
X1241620Y1512394D01*
X1237048Y1503250D01*
X1227904Y1475818D01*
X1223586Y1466928D01*
X1219014Y1462356D01*
X1209870Y1457784D01*
X1196154Y1457784D01*
X1187010Y1466928D01*
X1182438Y1480390D01*
X1182438Y1498678D01*
X1187010Y1512394D01*
X1196154Y1521284D01*
X1277942Y1395808D02*
G01*
X1182438Y1395808D01*
X1277942Y1427812D02*
G01*
X1277942Y1364058D01*
X1001334Y1546936D02*
G01*
X1010478Y1551254D01*
X1019368Y1560398D01*
X1023940Y1569542D01*
X1023940Y1587830D01*
X1019368Y1596720D01*
X1010478Y1605864D01*
X1001334Y1610436D01*
X987618Y1615008D01*
X965012Y1615008D01*
X951296Y1610436D01*
X942152Y1605864D01*
X933008Y1596720D01*
X928436Y1587830D01*
X928436Y1569542D01*
X933008Y1560398D01*
X942152Y1551254D01*
X951296Y1546936D01*
X965012Y1546936D01*
X965012Y1569542D02*
G01*
X965012Y1546936D01*
X1023940Y1516710D02*
G01*
X928436Y1516710D01*
X1023940Y1516710D02*
G01*
X928436Y1453210D01*
X1023940Y1453210D02*
G01*
X928436Y1453210D01*
X1023940Y1423238D02*
G01*
X928436Y1423238D01*
X1023940Y1423238D02*
G01*
X1023940Y1391488D01*
X1019368Y1377772D01*
X1010478Y1368628D01*
X1001334Y1364056D01*
X987618Y1359484D01*
X965012Y1359484D01*
X951296Y1364056D01*
X942152Y1368628D01*
X933008Y1377772D01*
X928436Y1391488D01*
X928436Y1423238D01*
X769937Y1615005D02*
G01*
X674433Y1578683D01*
X769937Y1542361D02*
G01*
X674433Y1578683D01*
X769937Y1512389D02*
G01*
X674433Y1512389D01*
X769937Y1482163D02*
G01*
X674433Y1482163D01*
X769937Y1482163D02*
G01*
X674433Y1418663D01*
X769937Y1418663D02*
G01*
X674433Y1418663D01*
X4327941Y626107D02*
G01*
X4232437Y626107D01*
X4327941Y626107D02*
G01*
X4327941Y594357D01*
X4323369Y580641D01*
X4314479Y571497D01*
X4305335Y566925D01*
X4291619Y562353D01*
X4269013Y562353D01*
X4255297Y566925D01*
X4246153Y571497D01*
X4237009Y580641D01*
X4232437Y594357D01*
X4232437Y626107D01*
X4309907Y532381D02*
G01*
X4314479Y523491D01*
X4327941Y509775D01*
X4232437Y509775D01*
X4305335Y475231D02*
G01*
X4309907Y475231D01*
X4318797Y470659D01*
X4323369Y466087D01*
X4327941Y456943D01*
X4327941Y438909D01*
X4323369Y429765D01*
X4318797Y425193D01*
X4309907Y420621D01*
X4300763Y420621D01*
X4291619Y425193D01*
X4277903Y434337D01*
X4232437Y479803D01*
X4232437Y416049D01*
X4073944Y585213D02*
G01*
X3978440Y585213D01*
X4073944Y585213D02*
G01*
X4073944Y553463D01*
X4069372Y539747D01*
X4060482Y530603D01*
X4051338Y526031D01*
X4037622Y521459D01*
X4015016Y521459D01*
X4001300Y526031D01*
X3992156Y530603D01*
X3983012Y539747D01*
X3978440Y553463D01*
X3978440Y585213D01*
X4055910Y491487D02*
G01*
X4060482Y482597D01*
X4073944Y468881D01*
X3978440Y468881D01*
X4055910Y438909D02*
G01*
X4060482Y429765D01*
X4073944Y416049D01*
X3978440Y416049D01*
X3819941Y626107D02*
G01*
X3724437Y626107D01*
X3819941Y626107D02*
G01*
X3819941Y594357D01*
X3815369Y580641D01*
X3806479Y571497D01*
X3797335Y566925D01*
X3783619Y562353D01*
X3761013Y562353D01*
X3747297Y566925D01*
X3738153Y571497D01*
X3729009Y580641D01*
X3724437Y594357D01*
X3724437Y626107D01*
X3801907Y532381D02*
G01*
X3806479Y523491D01*
X3819941Y509775D01*
X3724437Y509775D01*
X3819941Y452371D02*
G01*
X3815369Y466087D01*
X3801907Y475231D01*
X3779047Y479803D01*
X3765585Y479803D01*
X3742725Y475231D01*
X3729009Y466087D01*
X3724437Y452371D01*
X3724437Y443481D01*
X3729009Y429765D01*
X3742725Y420621D01*
X3765585Y416049D01*
X3779047Y416049D01*
X3801907Y420621D01*
X3815369Y429765D01*
X3819941Y443481D01*
X3819941Y452371D01*
X3565941Y568703D02*
G01*
X3470437Y568703D01*
X3565941Y568703D02*
G01*
X3565941Y536953D01*
X3561369Y523237D01*
X3552479Y514093D01*
X3543335Y509521D01*
X3529619Y504949D01*
X3507013Y504949D01*
X3493297Y509521D01*
X3484153Y514093D01*
X3475009Y523237D01*
X3470437Y536953D01*
X3470437Y568703D01*
X3534191Y416049D02*
G01*
X3520475Y420621D01*
X3511585Y429511D01*
X3507013Y443227D01*
X3507013Y447799D01*
X3511585Y461515D01*
X3520475Y470405D01*
X3534191Y474977D01*
X3538763Y474977D01*
X3552479Y470405D01*
X3561369Y461515D01*
X3565941Y447799D01*
X3565941Y443227D01*
X3561369Y429511D01*
X3552479Y420621D01*
X3534191Y416049D01*
X3511585Y416049D01*
X3488725Y420621D01*
X3475009Y429511D01*
X3470437Y443227D01*
X3470437Y452371D01*
X3475009Y466087D01*
X3484153Y470405D01*
X3311944Y573275D02*
G01*
X3216440Y573275D01*
X3311944Y573275D02*
G01*
X3311944Y541525D01*
X3307372Y527809D01*
X3298482Y518665D01*
X3289338Y514093D01*
X3275622Y509521D01*
X3253016Y509521D01*
X3239300Y514093D01*
X3230156Y518665D01*
X3221012Y527809D01*
X3216440Y541525D01*
X3216440Y573275D01*
X3311944Y456943D02*
G01*
X3307372Y470659D01*
X3298482Y474977D01*
X3289338Y474977D01*
X3280194Y470659D01*
X3275622Y461515D01*
X3271050Y443227D01*
X3266478Y429765D01*
X3257588Y420621D01*
X3248444Y416049D01*
X3234728Y416049D01*
X3225584Y420621D01*
X3221012Y425193D01*
X3216440Y438655D01*
X3216440Y456943D01*
X3221012Y470659D01*
X3225584Y474977D01*
X3234728Y479549D01*
X3248444Y479549D01*
X3257588Y474977D01*
X3266478Y466087D01*
X3271050Y452371D01*
X3275622Y434083D01*
X3280194Y425193D01*
X3289338Y420621D01*
X3298482Y420621D01*
X3307372Y425193D01*
X3311944Y438655D01*
X3311944Y456943D01*
X3057941Y573275D02*
G01*
X2962437Y573275D01*
X3057941Y573275D02*
G01*
X3057941Y541525D01*
X3053369Y527809D01*
X3044479Y518665D01*
X3035335Y514093D01*
X3021619Y509521D01*
X2999013Y509521D01*
X2985297Y514093D01*
X2976153Y518665D01*
X2967009Y527809D01*
X2962437Y541525D01*
X2962437Y573275D01*
X3057941Y416049D02*
G01*
X2962437Y461515D01*
X3057941Y479549D02*
G01*
X3057941Y416049D01*
X2803941Y568703D02*
G01*
X2708437Y568703D01*
X2803941Y568703D02*
G01*
X2803941Y536953D01*
X2799369Y523237D01*
X2790479Y514093D01*
X2781335Y509521D01*
X2767619Y504949D01*
X2745013Y504949D01*
X2731297Y509521D01*
X2722153Y514093D01*
X2713009Y523237D01*
X2708437Y536953D01*
X2708437Y568703D01*
X2790479Y420621D02*
G01*
X2799369Y425193D01*
X2803941Y438655D01*
X2803941Y447799D01*
X2799369Y461515D01*
X2785907Y470405D01*
X2763047Y474977D01*
X2740441Y474977D01*
X2722153Y470405D01*
X2713009Y461515D01*
X2708437Y447799D01*
X2708437Y443227D01*
X2713009Y429511D01*
X2722153Y420621D01*
X2735869Y416049D01*
X2740441Y416049D01*
X2753903Y420621D01*
X2763047Y429511D01*
X2767619Y443227D01*
X2767619Y447799D01*
X2763047Y461515D01*
X2753903Y470405D01*
X2740441Y474977D01*
X2549944Y573275D02*
G01*
X2454440Y573275D01*
X2549944Y573275D02*
G01*
X2549944Y541525D01*
X2545372Y527809D01*
X2536482Y518665D01*
X2527338Y514093D01*
X2513622Y509521D01*
X2491016Y509521D01*
X2477300Y514093D01*
X2468156Y518665D01*
X2459012Y527809D01*
X2454440Y541525D01*
X2454440Y573275D01*
X2549944Y425193D02*
G01*
X2549944Y470659D01*
X2509050Y474977D01*
X2513622Y470659D01*
X2518194Y456943D01*
X2518194Y443227D01*
X2513622Y429765D01*
X2504478Y420621D01*
X2491016Y416049D01*
X2481872Y416049D01*
X2468156Y420621D01*
X2459012Y429765D01*
X2454440Y443227D01*
X2454440Y456943D01*
X2459012Y470659D01*
X2463584Y474977D01*
X2472728Y479549D01*
X2295941Y577847D02*
G01*
X2200437Y577847D01*
X2295941Y577847D02*
G01*
X2295941Y546097D01*
X2291369Y532381D01*
X2282479Y523237D01*
X2273335Y518665D01*
X2259619Y514093D01*
X2237013Y514093D01*
X2223297Y518665D01*
X2214153Y523237D01*
X2205009Y532381D01*
X2200437Y546097D01*
X2200437Y577847D01*
X2295941Y438655D02*
G01*
X2232441Y484121D01*
X2232441Y416049D01*
X2295941Y438655D02*
G01*
X2200437Y438655D01*
X2041941Y573275D02*
G01*
X1946437Y573275D01*
X2041941Y573275D02*
G01*
X2041941Y541525D01*
X2037369Y527809D01*
X2028479Y518665D01*
X2019335Y514093D01*
X2005619Y509521D01*
X1983013Y509521D01*
X1969297Y514093D01*
X1960153Y518665D01*
X1951009Y527809D01*
X1946437Y541525D01*
X1946437Y573275D01*
X2041941Y470659D02*
G01*
X2041941Y420621D01*
X2005619Y447799D01*
X2005619Y434083D01*
X2001047Y425193D01*
X1996475Y420621D01*
X1983013Y416049D01*
X1973869Y416049D01*
X1960153Y420621D01*
X1951009Y429765D01*
X1946437Y443227D01*
X1946437Y456943D01*
X1951009Y470659D01*
X1955581Y474977D01*
X1964725Y479549D01*
X1787944Y573275D02*
G01*
X1692440Y573275D01*
X1787944Y573275D02*
G01*
X1787944Y541525D01*
X1783372Y527809D01*
X1774482Y518665D01*
X1765338Y514093D01*
X1751622Y509521D01*
X1729016Y509521D01*
X1715300Y514093D01*
X1706156Y518665D01*
X1697012Y527809D01*
X1692440Y541525D01*
X1692440Y573275D01*
X1765338Y474977D02*
G01*
X1769910Y474977D01*
X1778800Y470659D01*
X1783372Y466087D01*
X1787944Y456943D01*
X1787944Y438655D01*
X1783372Y429765D01*
X1778800Y425193D01*
X1769910Y420621D01*
X1760766Y420621D01*
X1751622Y425193D01*
X1737906Y434083D01*
X1692440Y479549D01*
X1692440Y416049D01*
X1511335Y603501D02*
G01*
X1520479Y607819D01*
X1529369Y616963D01*
X1533941Y626107D01*
X1533941Y644395D01*
X1529369Y653285D01*
X1520479Y662429D01*
X1511335Y667001D01*
X1497619Y671573D01*
X1475013Y671573D01*
X1461297Y667001D01*
X1452153Y662429D01*
X1443009Y653285D01*
X1438437Y644395D01*
X1438437Y626107D01*
X1443009Y616963D01*
X1452153Y607819D01*
X1461297Y603501D01*
X1475013Y603501D01*
X1475013Y626107D02*
G01*
X1475013Y603501D01*
X1533941Y573275D02*
G01*
X1438437Y573275D01*
X1533941Y573275D02*
G01*
X1438437Y509775D01*
X1533941Y509775D02*
G01*
X1438437Y509775D01*
X1533941Y479803D02*
G01*
X1438437Y479803D01*
X1533941Y479803D02*
G01*
X1533941Y448053D01*
X1529369Y434337D01*
X1520479Y425193D01*
X1511335Y420621D01*
X1497619Y416049D01*
X1475013Y416049D01*
X1461297Y420621D01*
X1452153Y425193D01*
X1443009Y434337D01*
X1438437Y448053D01*
X1438437Y479803D01*
X1279941Y667001D02*
G01*
X1184437Y667001D01*
X1279941Y667001D02*
G01*
X1279941Y626107D01*
X1275369Y612391D01*
X1270797Y607819D01*
X1261907Y603247D01*
X1252763Y603247D01*
X1243619Y607819D01*
X1239047Y612391D01*
X1234475Y626107D01*
X1234475Y667001D01*
X1234475Y635251D02*
G01*
X1184437Y603247D01*
X1266479Y509775D02*
G01*
X1275369Y518919D01*
X1279941Y532381D01*
X1279941Y550669D01*
X1275369Y564385D01*
X1266479Y573275D01*
X1257335Y573275D01*
X1248191Y568703D01*
X1243619Y564385D01*
X1239047Y555241D01*
X1229903Y527809D01*
X1225585Y518919D01*
X1221013Y514347D01*
X1211869Y509775D01*
X1198153Y509775D01*
X1189009Y518919D01*
X1184437Y532381D01*
X1184437Y550669D01*
X1189009Y564385D01*
X1198153Y573275D01*
X1279941Y447799D02*
G01*
X1184437Y447799D01*
X1279941Y479803D02*
G01*
X1279941Y416049D01*
X1025944Y667001D02*
G01*
X930440Y667001D01*
X1025944Y667001D02*
G01*
X1025944Y626107D01*
X1021372Y612391D01*
X1016800Y607819D01*
X1007910Y603247D01*
X998766Y603247D01*
X989622Y607819D01*
X985050Y612391D01*
X980478Y626107D01*
X980478Y667001D01*
X980478Y635251D02*
G01*
X930440Y603247D01*
X1025944Y573275D02*
G01*
X930440Y509775D01*
X1025944Y509775D02*
G01*
X930440Y573275D01*
X1025944Y479803D02*
G01*
X930440Y479803D01*
X1025944Y479803D02*
G01*
X1025944Y447799D01*
X1021372Y434337D01*
X1012482Y425193D01*
X1003338Y420621D01*
X989622Y416049D01*
X967016Y416049D01*
X953300Y420621D01*
X944156Y425193D01*
X935012Y434337D01*
X930440Y447799D01*
X930440Y479803D01*
X771941Y635251D02*
G01*
X676437Y635251D01*
X771941Y667001D02*
G01*
X771941Y603247D01*
X771941Y573275D02*
G01*
X676437Y509775D01*
X771941Y509775D02*
G01*
X676437Y573275D01*
X771941Y479803D02*
G01*
X676437Y479803D01*
X771941Y479803D02*
G01*
X771941Y447799D01*
X767369Y434337D01*
X758479Y425193D01*
X749335Y420621D01*
X735619Y416049D01*
X713013Y416049D01*
X699297Y420621D01*
X690153Y425193D01*
X681009Y434337D01*
X676437Y447799D01*
X676437Y479803D01*
D10*
X923544Y4379721D02*
G01*
X913129Y4390136D01*
X897636Y4395215D01*
X876807Y4395215D01*
X861313Y4390136D01*
X850900Y4379721D01*
X850900Y4369307D01*
X855979Y4358894D01*
X861313Y4353560D01*
X871728Y4348479D01*
X902970Y4338065D01*
X913129Y4332986D01*
X918463Y4327652D01*
X923544Y4317237D01*
X923544Y4301744D01*
X913129Y4291329D01*
X897636Y4286250D01*
X876807Y4286250D01*
X861313Y4291329D01*
X850900Y4301744D01*
X957834Y4395215D02*
G01*
X983995Y4286250D01*
X1009904Y4395215D02*
G01*
X983995Y4286250D01*
X1009904Y4395215D02*
G01*
X1035812Y4286250D01*
X1061720Y4395215D02*
G01*
X1035812Y4286250D01*
X1096010Y4374387D02*
G01*
X1106423Y4379721D01*
X1122171Y4395215D01*
X1122171Y4286250D01*
X1752600Y2553715D02*
G01*
X1752600Y2444750D01*
X1825244Y2553715D02*
G01*
X1825244Y2444750D01*
X1752600Y2501900D02*
G01*
X1825244Y2501900D01*
X1859534Y2532887D02*
G01*
X1869947Y2538221D01*
X1885695Y2553715D01*
X1885695Y2444750D01*
X3111500Y4776215D02*
G01*
X3111500Y4667250D01*
X3184143Y4776215D02*
G01*
X3184143Y4667250D01*
X3111500Y4724400D02*
G01*
X3184143Y4724400D01*
X3228847Y4776215D02*
G01*
X3285997Y4776215D01*
X3255009Y4734560D01*
X3270504Y4734560D01*
X3280918Y4729479D01*
X3285997Y4724400D01*
X3291331Y4708652D01*
X3291331Y4698237D01*
X3285997Y4682744D01*
X3275584Y4672329D01*
X3260090Y4667250D01*
X3244595Y4667250D01*
X3228847Y4672329D01*
X3223768Y4677410D01*
X3218434Y4687823D01*
X3848100Y4471415D02*
G01*
X3848100Y4362450D01*
X3848100Y4362450D02*
G01*
X3910329Y4362450D01*
X3944620Y4471415D02*
G01*
X3944620Y4362450D01*
X3944620Y4471415D02*
G01*
X4012184Y4471415D01*
X3944620Y4419600D02*
G01*
X3986275Y4419600D01*
X3944620Y4362450D02*
G01*
X4012184Y4362450D01*
X4046474Y4471415D02*
G01*
X4046474Y4362450D01*
X4046474Y4471415D02*
G01*
X4083050Y4471415D01*
X4098543Y4466336D01*
X4108958Y4455921D01*
X4114038Y4445507D01*
X4119372Y4429760D01*
X4119372Y4403852D01*
X4114038Y4388357D01*
X4108958Y4377944D01*
X4098543Y4367529D01*
X4083050Y4362450D01*
X4046474Y4362450D01*
X4153661Y4450587D02*
G01*
X4164075Y4455921D01*
X4179570Y4471415D01*
X4179570Y4362450D01*
X876300Y3430015D02*
G01*
X876300Y3321050D01*
X876300Y3430015D02*
G01*
X923036Y3430015D01*
X938529Y3424936D01*
X943863Y3419602D01*
X948944Y3409187D01*
X948944Y3398773D01*
X943863Y3388360D01*
X938529Y3383279D01*
X923036Y3378200D01*
X876300Y3378200D01*
X912621Y3378200D02*
G01*
X948944Y3321050D01*
X983234Y3409187D02*
G01*
X993647Y3414521D01*
X1009395Y3430015D01*
X1009395Y3321050D01*
X1116329Y3430015D02*
G01*
X1064260Y3321050D01*
X1043686Y3430015D02*
G01*
X1116329Y3430015D01*
X3873500Y3468115D02*
G01*
X3873500Y3359150D01*
X3873500Y3468115D02*
G01*
X3920236Y3468115D01*
X3935729Y3463036D01*
X3941063Y3457702D01*
X3946143Y3447287D01*
X3946143Y3436873D01*
X3941063Y3426460D01*
X3935729Y3421379D01*
X3920236Y3416300D01*
X3873500Y3416300D01*
X3909822Y3416300D02*
G01*
X3946143Y3359150D01*
X3985768Y3442207D02*
G01*
X3985768Y3447287D01*
X3990847Y3457702D01*
X3996181Y3463036D01*
X4006595Y3468115D01*
X4027170Y3468115D01*
X4037584Y3463036D01*
X4042918Y3457702D01*
X4047997Y3447287D01*
X4047997Y3436873D01*
X4042918Y3426460D01*
X4032504Y3410965D01*
X3980434Y3359150D01*
X4053331Y3359150D01*
X4118609Y3468115D02*
G01*
X4103115Y3463036D01*
X4092702Y3447287D01*
X4087622Y3421379D01*
X4087622Y3405886D01*
X4092702Y3379723D01*
X4103115Y3364229D01*
X4118609Y3359150D01*
X4129024Y3359150D01*
X4144772Y3364229D01*
X4155186Y3379723D01*
X4160265Y3405886D01*
X4160265Y3421379D01*
X4155186Y3447287D01*
X4144772Y3463036D01*
X4129024Y3468115D01*
X4118609Y3468115D01*
X1282700Y1309115D02*
G01*
X1282700Y1200150D01*
X1282700Y1309115D02*
G01*
X1329436Y1309115D01*
X1344929Y1304036D01*
X1350263Y1298702D01*
X1355344Y1288287D01*
X1355344Y1277873D01*
X1350263Y1267460D01*
X1344929Y1262379D01*
X1329436Y1257300D01*
X1282700Y1257300D01*
X1319021Y1257300D02*
G01*
X1355344Y1200150D01*
X1394968Y1283207D02*
G01*
X1394968Y1288287D01*
X1400047Y1298702D01*
X1405381Y1304036D01*
X1415795Y1309115D01*
X1436370Y1309115D01*
X1446784Y1304036D01*
X1452118Y1298702D01*
X1457197Y1288287D01*
X1457197Y1277873D01*
X1452118Y1267460D01*
X1441704Y1251965D01*
X1389634Y1200150D01*
X1462531Y1200150D01*
X1496821Y1288287D02*
G01*
X1507236Y1293621D01*
X1522729Y1309115D01*
X1522729Y1200150D01*
D12*
X2184440Y1904939D02*
G01*
X2120940Y1841439D01*
X2057440Y1904939D01*
X4343425Y1650951D02*
G01*
X4406925Y1714451D01*
X4406925Y1841451D01*
X4343425Y1904951D01*
X4089425Y1650951D02*
G01*
X4152925Y1714451D01*
X4216425Y1650951D01*
X3835425Y1650951D02*
G01*
X3898925Y1714451D01*
X3962425Y1650951D01*
X3581471Y1650951D02*
G01*
X3644948Y1714451D01*
X3708448Y1650951D01*
X3327476Y1650951D02*
G01*
X3390976Y1714451D01*
X3454476Y1650951D01*
X3073476Y1650951D02*
G01*
X3136976Y1714451D01*
X3200476Y1650951D01*
X2819476Y1650951D02*
G01*
X2882976Y1714451D01*
X2946476Y1650951D01*
X2565476Y1650951D02*
G01*
X2628976Y1714451D01*
X2692476Y1650951D01*
X2311476Y1650951D02*
G01*
X2374976Y1714451D01*
X2438476Y1650951D01*
X2057476Y1650951D02*
G01*
X2120976Y1714451D01*
X2184476Y1650951D01*
X1803476Y1650951D02*
G01*
X1866976Y1714451D01*
X1930476Y1650951D01*
X1549476Y1650951D02*
G01*
X1612976Y1714451D01*
X1676476Y1650951D01*
X1295448Y1650951D02*
G01*
X1358971Y1714451D01*
X1422476Y1650951D01*
X1041440Y1650951D02*
G01*
X1104940Y1714451D01*
X1168440Y1650951D01*
X787440Y1650951D02*
G01*
X850940Y1714451D01*
X914440Y1650951D01*
X660440Y1904951D02*
G01*
X596940Y1841451D01*
X596940Y1714451D01*
X660440Y1650951D01*
X914440Y1904951D02*
G01*
X850940Y1841451D01*
X787440Y1904951D01*
X1168440Y1904951D02*
G01*
X1104940Y1841451D01*
X1041440Y1904951D01*
X1422476Y1904951D02*
G01*
X1358971Y1841451D01*
X1295448Y1904951D01*
X3708448Y1904951D02*
G01*
X3644948Y1841451D01*
X3581471Y1904951D01*
X4216425Y1904951D02*
G01*
X4152925Y1841451D01*
X4089425Y1904951D01*
X3962425Y1904951D02*
G01*
X3898925Y1841451D01*
X3835425Y1904951D01*
X3454476Y1904951D02*
G01*
X3390976Y1841451D01*
X3327476Y1904951D01*
X3200476Y1904951D02*
G01*
X3136976Y1841451D01*
X3073476Y1904951D01*
X2946476Y1904951D02*
G01*
X2882976Y1841451D01*
X2819476Y1904951D01*
X2692476Y1904951D02*
G01*
X2628976Y1841451D01*
X2565476Y1904951D01*
X2438476Y1904951D02*
G01*
X2374976Y1841451D01*
X2311476Y1904951D01*
X1930476Y1904951D02*
G01*
X1866976Y1841451D01*
X1803476Y1904951D01*
X1676476Y1904951D02*
G01*
X1612976Y1841451D01*
X1549476Y1904951D01*
X1422476Y1904951D02*
G01*
X1358971Y1841451D01*
X1295448Y1904951D01*
X1168440Y1904951D01*
X1104940Y1841451D01*
X1041440Y1904951D01*
X914440Y1904951D01*
X850940Y1841451D01*
X787440Y1904951D01*
X660440Y1904951D01*
X596940Y1841451D01*
X596940Y1714451D01*
X660440Y1650951D01*
X787440Y1650951D01*
X850940Y1714451D01*
X914440Y1650951D01*
X1041440Y1650951D01*
X1104940Y1714451D01*
X1168440Y1650951D01*
X1295448Y1650951D01*
X1358971Y1714451D01*
X1422476Y1650951D01*
X1549476Y1650951D01*
X1612976Y1714451D01*
X1676476Y1650951D01*
X1803476Y1650951D01*
X1866976Y1714451D01*
X1930476Y1650951D01*
X2057476Y1650951D01*
X2120976Y1714451D01*
X2184476Y1650951D01*
X2311476Y1650951D01*
X2374976Y1714451D01*
X2438476Y1650951D01*
X2565476Y1650951D01*
X2628976Y1714451D01*
X2692476Y1650951D01*
X2819476Y1650951D01*
X2882976Y1714451D01*
X2946476Y1650951D01*
X3073476Y1650951D01*
X3136976Y1714451D01*
X3200476Y1650951D01*
X3327476Y1650951D01*
X3390976Y1714451D01*
X3454476Y1650951D01*
X3581471Y1650951D01*
X3644948Y1714451D01*
X3708448Y1650951D01*
X3835425Y1650951D01*
X3898925Y1714451D01*
X3962425Y1650951D01*
X4089425Y1650951D01*
X4152925Y1714451D01*
X4216425Y1650951D01*
X4343425Y1650951D01*
X4406925Y1714451D01*
X4406925Y1841451D01*
X4343425Y1904951D01*
X2819374Y127043D02*
G01*
X2882874Y190543D01*
X2946374Y127043D01*
X3581333Y127033D02*
G01*
X3644836Y190533D01*
X3708361Y127033D01*
X3835374Y127033D01*
X3898874Y190533D01*
X3962374Y127033D01*
X4089374Y127033D01*
X4152874Y190533D01*
X4216374Y127033D01*
X4343374Y127033D01*
X4406874Y190533D01*
X4406874Y317533D01*
X4343374Y381033D01*
X4216374Y381033D01*
X4152874Y317533D01*
X4089374Y381033D01*
X3962374Y381033D01*
X3898874Y317533D01*
X3835374Y381033D01*
X3708361Y381033D01*
X3644836Y317533D01*
X3581333Y381033D01*
X3454333Y381033D01*
X3390833Y317533D01*
X3327333Y381033D01*
X3200333Y381033D01*
X3136833Y317533D01*
X3073333Y381033D01*
X2946333Y381033D01*
X2882833Y317533D01*
X2819333Y381033D01*
X2692333Y381033D01*
X2628833Y317533D01*
X2565333Y381033D01*
X2438333Y381033D01*
X2374833Y317533D01*
X2311333Y381033D01*
X2184333Y381033D01*
X2120833Y317533D01*
X2057333Y381033D01*
X1930333Y381033D01*
X1866833Y317533D01*
X1803333Y381033D01*
X1676333Y381033D01*
X1612833Y317533D01*
X1549333Y381033D01*
X1422339Y381033D01*
X1358861Y317533D01*
X1295361Y381033D01*
X1168384Y381033D01*
X1104884Y317533D01*
X1041384Y381033D01*
X914384Y381033D01*
X850884Y317533D01*
X787384Y381033D01*
X660384Y381033D01*
X596884Y317533D01*
X596884Y190533D01*
X660384Y127033D01*
X1295361Y127033D02*
G01*
X1358861Y190533D01*
X1422339Y127033D01*
X787384Y127033D02*
G01*
X850884Y190533D01*
X914384Y127033D01*
X1041384Y127033D02*
G01*
X1104884Y190533D01*
X1168384Y127033D01*
X1549333Y127033D02*
G01*
X1612833Y190533D01*
X1676333Y127033D01*
X1803333Y127033D02*
G01*
X1866833Y190533D01*
X1930333Y127033D01*
X2057333Y127033D02*
G01*
X2120833Y190533D01*
X2184333Y127033D01*
X2311333Y127033D02*
G01*
X2374833Y190533D01*
X2438333Y127033D01*
X2565333Y127033D02*
G01*
X2628833Y190533D01*
X2692333Y127033D01*
X3073333Y127033D02*
G01*
X3136833Y190533D01*
X3200333Y127033D01*
X3327333Y127033D02*
G01*
X3390833Y190533D01*
X3454333Y127033D01*
X4272279Y736600D02*
G01*
X4272279Y761989D01*
X4660900Y736600D02*
G01*
X4813300Y736600D01*
X4813300Y1295400D01*
X4272279Y1295400D01*
X4272279Y1274495D01*
X4660900Y736600D02*
G01*
X4272279Y736600D01*
X4272279Y761989D02*
G01*
X4272279Y1270000D01*
D10*
X4668520Y119382D02*
G01*
X335287Y119382D01*
X335287Y1912620D01*
X4668520Y1912620D01*
X4668520Y119382D01*
D13*
X778306Y3951775D02*
G01*
X778306Y4049224D01*
X812914Y4225493D02*
G01*
X1193685Y4225493D01*
X812914Y3775506D02*
G01*
X1193685Y3775506D01*
X1228293Y4049224D02*
G01*
X1228293Y3951775D01*
D14*
X1930400Y2413000D02*
G01*
X1739900Y2413000D01*
X1739900Y2159000D01*
X3263900Y2159000D01*
X3263900Y2413000D01*
D15*
X3263900Y2413000D02*
G01*
X1930400Y2413000D01*
D14*
X1993900Y4597400D02*
G01*
X1993900Y4851400D01*
X3009900Y4851400D01*
X3009900Y4597400D01*
X2819400Y4597400D01*
D15*
X1993900Y4597400D02*
G01*
X2819400Y4597400D01*
D13*
X3790203Y4143199D02*
G01*
X3790203Y3883200D01*
X688339Y3030220D02*
G01*
X688339Y3268979D01*
X688339Y3268979D02*
G01*
X1318260Y3268979D01*
X1318260Y3268979D02*
G01*
X1318260Y3030220D01*
X1318260Y3030220D02*
G01*
X688339Y3030220D01*
X3698240Y3030220D02*
G01*
X3698240Y3268979D01*
X3698240Y3268979D02*
G01*
X4328159Y3268979D01*
X4328159Y3268979D02*
G01*
X4328159Y3030220D01*
X4328159Y3030220D02*
G01*
X3698240Y3030220D01*
X1737360Y1135379D02*
G01*
X1737360Y896620D01*
X1737360Y896620D02*
G01*
X1107439Y896620D01*
X1107439Y896620D02*
G01*
X1107439Y1135379D01*
X1107439Y1135379D02*
G01*
X1737360Y1135379D01*
G75*
G01*
X3793033Y3875024D02*
G03*
X3793033Y4151376I220244J138176D01*
G75*
G01
X1155700Y3848100D02*
G03X1155700Y3848100I-25400J0D01*
G75*
G01
X901700Y3848100D02*
G03X901700Y3848100I-25400J0D01*
G75*
G01
X1155700Y4152900D02*
G03X1155700Y4152900I-25400J0D01*
G75*
G01
X901700Y4152900D02*
G03X901700Y4152900I-25400J0D01*
G75*
G01
X1117600Y4000500D02*
G03X1117600Y4000500I-114300J0D01*
M02*
