M48
METRIC,LZ,000.000
;FILE_FORMAT=3:3
;TYPE=PLATED
;Layer: PTH_Through
;EasyEDA v6.5.48, 2025-03-25 09:41:14
;1b9fd03e791046f9bebca906f8adb083,878c4c1e0da8487e804687d0af4422f9,10
;Gerber Generator version 0.2
;Holesize 1 = 0.889 mm
T01C0.889
;Holesize 2 = 0.900 mm
T02C0.900
;Holesize 3 = 0.901 mm
T03C0.901
;Holesize 4 = 0.915 mm
T04C0.915
;Holesize 5 = 1.000 mm
T05C1.000
%
G05
G90
T01
X056388Y036830
X053848Y036830
X051308Y036830
X048768Y036830
X046228Y036830
X043688Y036830
X023114Y058674
X023114Y061214
X076962Y058547
X076962Y061087
X050038Y051054
X050038Y058420
T02
X057852Y024511
X068012Y024511
X057852Y029591
X068012Y029591
X068012Y021971
X057852Y021971
X068012Y027051
X057852Y027051
X031944Y027051
X042104Y027051
X031944Y021971
X042104Y021971
X032004Y043688
X042164Y043688
X068072Y041148
X057912Y041148
X042164Y046228
X032004Y046228
X057912Y048768
X068072Y048768
X068072Y043688
X057912Y043688
T03
X028067Y090297
X038227Y090297
X028067Y094869
X038227Y094869
X061722Y090170
X071882Y090170
X061722Y094742
X071882Y094742
X051435Y094234
X053975Y094234
X048641Y094234
X046101Y094234
T04
X042418Y063500
X057531Y063500
T05
X063624Y006477
X063624Y003937
X066424Y003937
X066424Y006477
X053718Y006477
X053718Y003937
X056518Y003937
X056518Y006477
X043558Y006477
X043558Y003937
X046358Y003937
X046358Y006477
X033652Y006477
X033652Y003937
X036452Y003937
X036452Y006477
X003680Y045974
X003680Y043434
X006480Y043434
X006480Y045974
X093596Y045847
X093596Y043307
X096396Y043307
X096396Y045847
X050037Y090195G85X050037Y090145
X047497Y090195G85X047497Y090145
X052577Y090195G85X052577Y090145
X053848Y061214
X051308Y061214
X048768Y061214
X046228Y061214
X038636Y061214
X029436Y061214
X060805Y061087
X070005Y061087
X057852Y032258
X068012Y032258
X048768Y097536
X051308Y097536
X075819Y094746
X075819Y092456
X075819Y090166
X024003Y090293
X024003Y092583
X024003Y094873
X046167Y032131
X046168Y029591
X046168Y027051
X046168Y024511
X046168Y021971
X046168Y019431
X046168Y016891
X053788Y032131
X053788Y029591
X053788Y027051
X053788Y024511
X053788Y021971
X053788Y019431
X053788Y016891
X046228Y048768
X046228Y046228
X046228Y043688
X046228Y041148
X053848Y048768
X053848Y046228
X053848Y043688
X053848Y041148
X029972Y078994
X029972Y070612
X070104Y070485
X070104Y078994
X036449Y011557
X047244Y011557
X057404Y011557
X045466Y011557
X055880Y019431
X055880Y029591
X043942Y029591
X043942Y019431
X057912Y019431
X068072Y019431
X055626Y011557
X069723Y011557
X065532Y011557
X070866Y042672
X070866Y036703
X070866Y044323
X070866Y051054
X075311Y036703
X075311Y051054
X022606Y051181
X022606Y044069
X039958Y005548
X040005Y001016
X050118Y005548
X050165Y001016
X060024Y005531
X060071Y001016
X032004Y024511
X042164Y024511
X063881Y011557
X065151Y074803
X035306Y074803
X025527Y044069
X025527Y051181
M30
