G04 Layer: TopSilkscreenLayer*
G04 EasyEDA v6.5.48, 2025-03-25 09:41:14*
G04 1b9fd03e791046f9bebca906f8adb083,878c4c1e0da8487e804687d0af4422f9,10*
G04 Gerber Generator version 0.2*
G04 Scale: 100 percent, Rotated: No, Reflected: No *
G04 Dimensions in millimeters *
G04 leading zeros omitted , absolute positions ,4 integer and 5 decimal *
%FSLAX45Y45*%
%MOMM*%

%ADD10C,0.1524*%
%ADD11C,0.2540*%
%ADD12C,0.2032*%
%ADD13C,0.2030*%
%ADD14C,0.2007*%
%ADD15C,0.2000*%
%ADD16C,0.2400*%
%ADD17C,0.2500*%
%ADD18C,0.6000*%
%ADD19C,0.3000*%
%ADD20C,0.0185*%

%LPD*%
D10*
X4527933Y8667722D02*
G01*
X4527933Y8589744D01*
X4533013Y8574250D01*
X4543427Y8563836D01*
X4558921Y8558756D01*
X4569335Y8558756D01*
X4585083Y8563836D01*
X4595243Y8574250D01*
X4600577Y8589744D01*
X4600577Y8667722D01*
X4634867Y8646894D02*
G01*
X4645281Y8652228D01*
X4660775Y8667722D01*
X4660775Y8558756D01*
X6959597Y2515631D02*
G01*
X6959597Y2406665D01*
X6959597Y2515631D02*
G01*
X7006333Y2515631D01*
X7021827Y2510551D01*
X7027161Y2505217D01*
X7032241Y2494803D01*
X7032241Y2484389D01*
X7027161Y2473975D01*
X7021827Y2468895D01*
X7006333Y2463815D01*
X6959597Y2463815D01*
X6995919Y2463815D02*
G01*
X7032241Y2406665D01*
X7066531Y2494803D02*
G01*
X7076945Y2500137D01*
X7092693Y2515631D01*
X7092693Y2406665D01*
X6959589Y3036326D02*
G01*
X6959589Y2927360D01*
X6959589Y3036326D02*
G01*
X7006325Y3036326D01*
X7021819Y3031246D01*
X7027153Y3025912D01*
X7032233Y3015498D01*
X7032233Y3005084D01*
X7027153Y2994670D01*
X7021819Y2989590D01*
X7006325Y2984510D01*
X6959589Y2984510D01*
X6995911Y2984510D02*
G01*
X7032233Y2927360D01*
X7071857Y3010418D02*
G01*
X7071857Y3015498D01*
X7076937Y3025912D01*
X7082271Y3031246D01*
X7092685Y3036326D01*
X7113259Y3036326D01*
X7123673Y3031246D01*
X7129007Y3025912D01*
X7134087Y3015498D01*
X7134087Y3005084D01*
X7129007Y2994670D01*
X7118593Y2979176D01*
X7066523Y2927360D01*
X7139421Y2927360D01*
X6959584Y2248921D02*
G01*
X6959584Y2139701D01*
X6959584Y2248921D02*
G01*
X7006320Y2248921D01*
X7021814Y2243841D01*
X7027148Y2238507D01*
X7032228Y2228093D01*
X7032228Y2217679D01*
X7027148Y2207265D01*
X7021814Y2202185D01*
X7006320Y2196851D01*
X6959584Y2196851D01*
X6995906Y2196851D02*
G01*
X7032228Y2139701D01*
X7118588Y2248921D02*
G01*
X7066518Y2176277D01*
X7144496Y2176277D01*
X7118588Y2248921D02*
G01*
X7118588Y2139701D01*
X6959610Y2769595D02*
G01*
X6959610Y2660629D01*
X6959610Y2769595D02*
G01*
X7006346Y2769595D01*
X7021840Y2764515D01*
X7027174Y2759181D01*
X7032254Y2748767D01*
X7032254Y2738353D01*
X7027174Y2727939D01*
X7021840Y2722859D01*
X7006346Y2717779D01*
X6959610Y2717779D01*
X6995932Y2717779D02*
G01*
X7032254Y2660629D01*
X7129028Y2769595D02*
G01*
X7076958Y2769595D01*
X7071878Y2722859D01*
X7076958Y2727939D01*
X7092706Y2733273D01*
X7108200Y2733273D01*
X7123694Y2727939D01*
X7134108Y2717779D01*
X7139442Y2702031D01*
X7139442Y2691617D01*
X7134108Y2676123D01*
X7123694Y2665709D01*
X7108200Y2660629D01*
X7092706Y2660629D01*
X7076958Y2665709D01*
X7071878Y2670789D01*
X7066544Y2681203D01*
X3619500Y2972851D02*
G01*
X3619500Y2863631D01*
X3619500Y2972851D02*
G01*
X3666236Y2972851D01*
X3681729Y2967771D01*
X3687063Y2962437D01*
X3692143Y2952023D01*
X3692143Y2941609D01*
X3687063Y2931195D01*
X3681729Y2926115D01*
X3666236Y2920781D01*
X3619500Y2920781D01*
X3655822Y2920781D02*
G01*
X3692143Y2863631D01*
X3788918Y2957357D02*
G01*
X3783584Y2967771D01*
X3768090Y2972851D01*
X3757675Y2972851D01*
X3742181Y2967771D01*
X3731768Y2952023D01*
X3726434Y2926115D01*
X3726434Y2900207D01*
X3731768Y2879379D01*
X3742181Y2868965D01*
X3757675Y2863631D01*
X3763009Y2863631D01*
X3778504Y2868965D01*
X3788918Y2879379D01*
X3793997Y2894873D01*
X3793997Y2900207D01*
X3788918Y2915701D01*
X3778504Y2926115D01*
X3763009Y2931195D01*
X3757675Y2931195D01*
X3742181Y2926115D01*
X3731768Y2915701D01*
X3726434Y2900207D01*
X3619500Y2464851D02*
G01*
X3619500Y2355631D01*
X3619500Y2464851D02*
G01*
X3666236Y2464851D01*
X3681729Y2459771D01*
X3687063Y2454437D01*
X3692143Y2444023D01*
X3692143Y2433609D01*
X3687063Y2423195D01*
X3681729Y2418115D01*
X3666236Y2412781D01*
X3619500Y2412781D01*
X3655822Y2412781D02*
G01*
X3692143Y2355631D01*
X3799331Y2464851D02*
G01*
X3747261Y2355631D01*
X3726434Y2464851D02*
G01*
X3799331Y2464851D01*
X3619484Y4217375D02*
G01*
X3619484Y4108409D01*
X3619484Y4217375D02*
G01*
X3666220Y4217375D01*
X3681714Y4212295D01*
X3687048Y4206961D01*
X3692128Y4196547D01*
X3692128Y4186133D01*
X3687048Y4175973D01*
X3681714Y4170639D01*
X3666220Y4165559D01*
X3619484Y4165559D01*
X3655806Y4165559D02*
G01*
X3692128Y4108409D01*
X3752580Y4217375D02*
G01*
X3736832Y4212295D01*
X3731752Y4201881D01*
X3731752Y4191467D01*
X3736832Y4181053D01*
X3747246Y4175973D01*
X3768074Y4170639D01*
X3783568Y4165559D01*
X3793982Y4155145D01*
X3799316Y4144731D01*
X3799316Y4128983D01*
X3793982Y4118823D01*
X3788902Y4113489D01*
X3773154Y4108409D01*
X3752580Y4108409D01*
X3736832Y4113489D01*
X3731752Y4118823D01*
X3726418Y4128983D01*
X3726418Y4144731D01*
X3731752Y4155145D01*
X3742166Y4165559D01*
X3757660Y4170639D01*
X3778488Y4175973D01*
X3788902Y4181053D01*
X3793982Y4191467D01*
X3793982Y4201881D01*
X3788902Y4212295D01*
X3773154Y4217375D01*
X3752580Y4217375D01*
X6226276Y3943339D02*
G01*
X6226276Y3834373D01*
X6226276Y3943339D02*
G01*
X6273012Y3943339D01*
X6288506Y3938259D01*
X6293840Y3932925D01*
X6298920Y3922511D01*
X6298920Y3912097D01*
X6293840Y3901937D01*
X6288506Y3896603D01*
X6273012Y3891523D01*
X6226276Y3891523D01*
X6262598Y3891523D02*
G01*
X6298920Y3834373D01*
X6400774Y3907017D02*
G01*
X6395694Y3891523D01*
X6385280Y3881109D01*
X6369786Y3875775D01*
X6364452Y3875775D01*
X6348958Y3881109D01*
X6338544Y3891523D01*
X6333210Y3907017D01*
X6333210Y3912097D01*
X6338544Y3927845D01*
X6348958Y3938259D01*
X6364452Y3943339D01*
X6369786Y3943339D01*
X6385280Y3938259D01*
X6395694Y3927845D01*
X6400774Y3907017D01*
X6400774Y3881109D01*
X6395694Y3854947D01*
X6385280Y3839453D01*
X6369786Y3834373D01*
X6359372Y3834373D01*
X6343624Y3839453D01*
X6338544Y3849867D01*
X3608034Y4895844D02*
G01*
X3608034Y4786878D01*
X3608034Y4895844D02*
G01*
X3654770Y4895844D01*
X3670264Y4890764D01*
X3675598Y4885430D01*
X3680678Y4875016D01*
X3680678Y4864602D01*
X3675598Y4854442D01*
X3670264Y4849108D01*
X3654770Y4844028D01*
X3608034Y4844028D01*
X3644356Y4844028D02*
G01*
X3680678Y4786878D01*
X3714968Y4875016D02*
G01*
X3725382Y4880350D01*
X3741130Y4895844D01*
X3741130Y4786878D01*
X3806408Y4895844D02*
G01*
X3790914Y4890764D01*
X3780500Y4875016D01*
X3775420Y4849108D01*
X3775420Y4833614D01*
X3780500Y4807452D01*
X3790914Y4791958D01*
X3806408Y4786878D01*
X3816822Y4786878D01*
X3832570Y4791958D01*
X3842984Y4807452D01*
X3848064Y4833614D01*
X3848064Y4849108D01*
X3842984Y4875016D01*
X3832570Y4890764D01*
X3816822Y4895844D01*
X3806408Y4895844D01*
X6184874Y5157170D02*
G01*
X6184874Y5048204D01*
X6184874Y5157170D02*
G01*
X6231610Y5157170D01*
X6247104Y5152090D01*
X6252438Y5146756D01*
X6257518Y5136342D01*
X6257518Y5125928D01*
X6252438Y5115768D01*
X6247104Y5110434D01*
X6231610Y5105354D01*
X6184874Y5105354D01*
X6221196Y5105354D02*
G01*
X6257518Y5048204D01*
X6291808Y5136342D02*
G01*
X6302222Y5141676D01*
X6317970Y5157170D01*
X6317970Y5048204D01*
X6357340Y5131262D02*
G01*
X6357340Y5136342D01*
X6362674Y5146756D01*
X6367754Y5152090D01*
X6378168Y5157170D01*
X6398996Y5157170D01*
X6409410Y5152090D01*
X6414490Y5146756D01*
X6419824Y5136342D01*
X6419824Y5125928D01*
X6414490Y5115768D01*
X6404076Y5100020D01*
X6352260Y5048204D01*
X6424904Y5048204D01*
X4511786Y6432537D02*
G01*
X4511786Y6323571D01*
X4584430Y6432537D02*
G01*
X4584430Y6323571D01*
X4511786Y6380721D02*
G01*
X4584430Y6380721D01*
X4681204Y6417043D02*
G01*
X4675870Y6427457D01*
X4660376Y6432537D01*
X4649962Y6432537D01*
X4634468Y6427457D01*
X4624054Y6411709D01*
X4618720Y6385801D01*
X4618720Y6359893D01*
X4624054Y6339065D01*
X4634468Y6328651D01*
X4649962Y6323571D01*
X4655296Y6323571D01*
X4670790Y6328651D01*
X4681204Y6339065D01*
X4686284Y6354559D01*
X4686284Y6359893D01*
X4681204Y6375387D01*
X4670790Y6385801D01*
X4655296Y6390881D01*
X4649962Y6390881D01*
X4634468Y6385801D01*
X4624054Y6375387D01*
X4618720Y6359893D01*
X4254482Y3976126D02*
G01*
X4254482Y3867160D01*
X4327126Y3976126D02*
G01*
X4327126Y3867160D01*
X4254482Y3924310D02*
G01*
X4327126Y3924310D01*
X4434314Y3976126D02*
G01*
X4382244Y3867160D01*
X4361416Y3976126D02*
G01*
X4434314Y3976126D01*
X3308586Y5886437D02*
G01*
X3308586Y5777471D01*
X3308586Y5886437D02*
G01*
X3344908Y5886437D01*
X3360656Y5881357D01*
X3370816Y5870943D01*
X3376150Y5860529D01*
X3381230Y5844781D01*
X3381230Y5818873D01*
X3376150Y5803379D01*
X3370816Y5792965D01*
X3360656Y5782551D01*
X3344908Y5777471D01*
X3308586Y5777471D01*
X3415520Y5865609D02*
G01*
X3425934Y5870943D01*
X3441682Y5886437D01*
X3441682Y5777471D01*
X6476987Y5906503D02*
G01*
X6476987Y5797537D01*
X6476987Y5906503D02*
G01*
X6513309Y5906503D01*
X6529057Y5901423D01*
X6539217Y5891009D01*
X6544551Y5880595D01*
X6549631Y5864847D01*
X6549631Y5838939D01*
X6544551Y5823445D01*
X6539217Y5813031D01*
X6529057Y5802617D01*
X6513309Y5797537D01*
X6476987Y5797537D01*
X6589255Y5880595D02*
G01*
X6589255Y5885675D01*
X6594335Y5896089D01*
X6599669Y5901423D01*
X6610083Y5906503D01*
X6630657Y5906503D01*
X6641071Y5901423D01*
X6646405Y5896089D01*
X6651485Y5885675D01*
X6651485Y5875261D01*
X6646405Y5864847D01*
X6635991Y5849353D01*
X6583921Y5797537D01*
X6656819Y5797537D01*
X6959589Y3290323D02*
G01*
X6959589Y3181357D01*
X6959589Y3290323D02*
G01*
X7006325Y3290323D01*
X7021819Y3285243D01*
X7027153Y3279909D01*
X7032233Y3269495D01*
X7032233Y3259081D01*
X7027153Y3248667D01*
X7021819Y3243587D01*
X7006325Y3238507D01*
X6959589Y3238507D01*
X6995911Y3238507D02*
G01*
X7032233Y3181357D01*
X7076937Y3290323D02*
G01*
X7134087Y3290323D01*
X7103099Y3248667D01*
X7118593Y3248667D01*
X7129007Y3243587D01*
X7134087Y3238507D01*
X7139421Y3222759D01*
X7139421Y3212345D01*
X7134087Y3196851D01*
X7123673Y3186437D01*
X7108179Y3181357D01*
X7092685Y3181357D01*
X7076937Y3186437D01*
X7071857Y3191517D01*
X7066523Y3201931D01*
X6207480Y4641816D02*
G01*
X6207480Y4532850D01*
X6207480Y4641816D02*
G01*
X6254216Y4641816D01*
X6269710Y4636736D01*
X6275044Y4631402D01*
X6280124Y4620988D01*
X6280124Y4610574D01*
X6275044Y4600160D01*
X6269710Y4595080D01*
X6254216Y4590000D01*
X6207480Y4590000D01*
X6243802Y4590000D02*
G01*
X6280124Y4532850D01*
X6314414Y4620988D02*
G01*
X6324828Y4626322D01*
X6340576Y4641816D01*
X6340576Y4532850D01*
X6374866Y4620988D02*
G01*
X6385280Y4626322D01*
X6400774Y4641816D01*
X6400774Y4532850D01*
X3314689Y9297438D02*
G01*
X3314689Y9188472D01*
X3314689Y9297438D02*
G01*
X3361425Y9297438D01*
X3376919Y9292358D01*
X3382253Y9287024D01*
X3387333Y9276610D01*
X3387333Y9266196D01*
X3382253Y9255782D01*
X3376919Y9250702D01*
X3361425Y9245622D01*
X3314689Y9245622D01*
X3351011Y9245622D02*
G01*
X3387333Y9188472D01*
X3421623Y9276610D02*
G01*
X3432037Y9281944D01*
X3447785Y9297438D01*
X3447785Y9188472D01*
X3544305Y9297438D02*
G01*
X3492489Y9297438D01*
X3487155Y9250702D01*
X3492489Y9255782D01*
X3507983Y9261116D01*
X3523477Y9261116D01*
X3539225Y9255782D01*
X3549639Y9245622D01*
X3554719Y9229874D01*
X3554719Y9219460D01*
X3549639Y9203966D01*
X3539225Y9193552D01*
X3523477Y9188472D01*
X3507983Y9188472D01*
X3492489Y9193552D01*
X3487155Y9198632D01*
X3482075Y9209046D01*
X3314689Y9754638D02*
G01*
X3314689Y9645672D01*
X3314689Y9754638D02*
G01*
X3361425Y9754638D01*
X3376919Y9749558D01*
X3382253Y9744224D01*
X3387333Y9733810D01*
X3387333Y9723396D01*
X3382253Y9712982D01*
X3376919Y9707902D01*
X3361425Y9702822D01*
X3314689Y9702822D01*
X3351011Y9702822D02*
G01*
X3387333Y9645672D01*
X3421623Y9733810D02*
G01*
X3432037Y9739144D01*
X3447785Y9754638D01*
X3447785Y9645672D01*
X3544305Y9739144D02*
G01*
X3539225Y9749558D01*
X3523477Y9754638D01*
X3513063Y9754638D01*
X3497569Y9749558D01*
X3487155Y9733810D01*
X3482075Y9707902D01*
X3482075Y9681994D01*
X3487155Y9661166D01*
X3497569Y9650752D01*
X3513063Y9645672D01*
X3518397Y9645672D01*
X3533891Y9650752D01*
X3544305Y9661166D01*
X3549639Y9676660D01*
X3549639Y9681994D01*
X3544305Y9697488D01*
X3533891Y9707902D01*
X3518397Y9712982D01*
X3513063Y9712982D01*
X3497569Y9707902D01*
X3487155Y9697488D01*
X3482075Y9681994D01*
X6565877Y8840195D02*
G01*
X6565877Y8731229D01*
X6565877Y8840195D02*
G01*
X6612613Y8840195D01*
X6628107Y8835115D01*
X6633441Y8829781D01*
X6638521Y8819367D01*
X6638521Y8808953D01*
X6633441Y8798539D01*
X6628107Y8793459D01*
X6612613Y8788379D01*
X6565877Y8788379D01*
X6602199Y8788379D02*
G01*
X6638521Y8731229D01*
X6672811Y8819367D02*
G01*
X6683225Y8824701D01*
X6698973Y8840195D01*
X6698973Y8731229D01*
X6759171Y8840195D02*
G01*
X6743677Y8835115D01*
X6738343Y8824701D01*
X6738343Y8814287D01*
X6743677Y8803873D01*
X6753837Y8798539D01*
X6774665Y8793459D01*
X6790413Y8788379D01*
X6800827Y8777965D01*
X6805907Y8767551D01*
X6805907Y8751803D01*
X6800827Y8741389D01*
X6795493Y8736309D01*
X6779999Y8731229D01*
X6759171Y8731229D01*
X6743677Y8736309D01*
X6738343Y8741389D01*
X6733263Y8751803D01*
X6733263Y8767551D01*
X6738343Y8777965D01*
X6748757Y8788379D01*
X6764251Y8793459D01*
X6785079Y8798539D01*
X6795493Y8803873D01*
X6800827Y8814287D01*
X6800827Y8824701D01*
X6795493Y8835115D01*
X6779999Y8840195D01*
X6759171Y8840195D01*
X6591277Y9767293D02*
G01*
X6591277Y9658327D01*
X6591277Y9767293D02*
G01*
X6638013Y9767293D01*
X6653507Y9762213D01*
X6658841Y9756879D01*
X6663921Y9746465D01*
X6663921Y9736051D01*
X6658841Y9725637D01*
X6653507Y9720557D01*
X6638013Y9715477D01*
X6591277Y9715477D01*
X6627599Y9715477D02*
G01*
X6663921Y9658327D01*
X6698211Y9746465D02*
G01*
X6708625Y9751799D01*
X6724373Y9767293D01*
X6724373Y9658327D01*
X6826227Y9730971D02*
G01*
X6820893Y9715477D01*
X6810479Y9705063D01*
X6794985Y9699729D01*
X6789651Y9699729D01*
X6774157Y9705063D01*
X6763743Y9715477D01*
X6758663Y9730971D01*
X6758663Y9736051D01*
X6763743Y9751799D01*
X6774157Y9762213D01*
X6789651Y9767293D01*
X6794985Y9767293D01*
X6810479Y9762213D01*
X6820893Y9751799D01*
X6826227Y9730971D01*
X6826227Y9705063D01*
X6820893Y9678901D01*
X6810479Y9663407D01*
X6794985Y9658327D01*
X6784571Y9658327D01*
X6769077Y9663407D01*
X6763743Y9673821D01*
X5640565Y9449274D02*
G01*
X5635231Y9459688D01*
X5624817Y9470102D01*
X5614657Y9475182D01*
X5593829Y9475182D01*
X5583415Y9470102D01*
X5573001Y9459688D01*
X5567667Y9449274D01*
X5562587Y9433526D01*
X5562587Y9407618D01*
X5567667Y9392124D01*
X5573001Y9381710D01*
X5583415Y9371296D01*
X5593829Y9366216D01*
X5614657Y9366216D01*
X5624817Y9371296D01*
X5635231Y9381710D01*
X5640565Y9392124D01*
X5685269Y9475182D02*
G01*
X5742419Y9475182D01*
X5711177Y9433526D01*
X5726671Y9433526D01*
X5737085Y9428446D01*
X5742419Y9423366D01*
X5747499Y9407618D01*
X5747499Y9397204D01*
X5742419Y9381710D01*
X5732005Y9371296D01*
X5716257Y9366216D01*
X5700763Y9366216D01*
X5685269Y9371296D01*
X5679935Y9376376D01*
X5674855Y9386790D01*
X5154411Y9397464D02*
G01*
X5159745Y9387050D01*
X5170159Y9376636D01*
X5180319Y9371556D01*
X5201147Y9371556D01*
X5211561Y9376636D01*
X5221975Y9387050D01*
X5227309Y9397464D01*
X5232389Y9413212D01*
X5232389Y9439120D01*
X5227309Y9454614D01*
X5221975Y9465028D01*
X5211561Y9475442D01*
X5201147Y9480522D01*
X5180319Y9480522D01*
X5170159Y9475442D01*
X5159745Y9465028D01*
X5154411Y9454614D01*
X5068305Y9371556D02*
G01*
X5120121Y9444200D01*
X5042143Y9444200D01*
X5068305Y9371556D02*
G01*
X5068305Y9480522D01*
X4521189Y9805395D02*
G01*
X4521189Y9696429D01*
X4593833Y9805395D02*
G01*
X4593833Y9696429D01*
X4521189Y9753579D02*
G01*
X4593833Y9753579D01*
X4633457Y9779487D02*
G01*
X4633457Y9784567D01*
X4638537Y9794981D01*
X4643871Y9800315D01*
X4654285Y9805395D01*
X4674859Y9805395D01*
X4685273Y9800315D01*
X4690607Y9794981D01*
X4695687Y9784567D01*
X4695687Y9774153D01*
X4690607Y9763739D01*
X4680193Y9748245D01*
X4628123Y9696429D01*
X4701021Y9696429D01*
X2514574Y6071615D02*
G01*
X2514574Y5962650D01*
X2587218Y6071615D02*
G01*
X2587218Y5962650D01*
X2514574Y6019800D02*
G01*
X2587218Y6019800D01*
X2673578Y6071615D02*
G01*
X2621508Y5998971D01*
X2699486Y5998971D01*
X2673578Y6071615D02*
G01*
X2673578Y5962650D01*
X7302474Y6033515D02*
G01*
X7302474Y5924550D01*
X7375118Y6033515D02*
G01*
X7375118Y5924550D01*
X7302474Y5981700D02*
G01*
X7375118Y5981700D01*
X7471892Y6033515D02*
G01*
X7419822Y6033515D01*
X7414742Y5986779D01*
X7419822Y5991860D01*
X7435570Y5997194D01*
X7451064Y5997194D01*
X7466558Y5991860D01*
X7476972Y5981700D01*
X7482306Y5965952D01*
X7482306Y5955537D01*
X7476972Y5940044D01*
X7466558Y5929629D01*
X7451064Y5924550D01*
X7435570Y5924550D01*
X7419822Y5929629D01*
X7414742Y5934710D01*
X7409408Y5945123D01*
X7524198Y9805403D02*
G01*
X7513784Y9800323D01*
X7503370Y9789909D01*
X7498036Y9779495D01*
X7492956Y9763747D01*
X7492956Y9737839D01*
X7498036Y9722345D01*
X7503370Y9711931D01*
X7513784Y9701517D01*
X7524198Y9696437D01*
X7545026Y9696437D01*
X7555186Y9701517D01*
X7565600Y9711931D01*
X7570934Y9722345D01*
X7576014Y9737839D01*
X7576014Y9763747D01*
X7570934Y9779495D01*
X7565600Y9789909D01*
X7555186Y9800323D01*
X7545026Y9805403D01*
X7524198Y9805403D01*
X7539692Y9717011D02*
G01*
X7570934Y9686023D01*
X7610304Y9784575D02*
G01*
X7620718Y9789909D01*
X7636466Y9805403D01*
X7636466Y9696437D01*
X2355319Y9818103D02*
G01*
X2344905Y9813023D01*
X2334491Y9802609D01*
X2329157Y9792195D01*
X2324077Y9776447D01*
X2324077Y9750539D01*
X2329157Y9735045D01*
X2334491Y9724631D01*
X2344905Y9714217D01*
X2355319Y9709137D01*
X2376147Y9709137D01*
X2386307Y9714217D01*
X2396721Y9724631D01*
X2402055Y9735045D01*
X2407135Y9750539D01*
X2407135Y9776447D01*
X2402055Y9792195D01*
X2396721Y9802609D01*
X2386307Y9813023D01*
X2376147Y9818103D01*
X2355319Y9818103D01*
X2370813Y9729711D02*
G01*
X2402055Y9698723D01*
X2446759Y9792195D02*
G01*
X2446759Y9797275D01*
X2451839Y9807689D01*
X2457173Y9813023D01*
X2467587Y9818103D01*
X2488161Y9818103D01*
X2498575Y9813023D01*
X2503909Y9807689D01*
X2508989Y9797275D01*
X2508989Y9786861D01*
X2503909Y9776447D01*
X2493495Y9760953D01*
X2441425Y9709137D01*
X2514323Y9709137D01*
X4925570Y1416052D02*
G01*
X4925570Y1338074D01*
X4930650Y1322580D01*
X4941064Y1312166D01*
X4956812Y1307086D01*
X4967226Y1307086D01*
X4982720Y1312166D01*
X4993134Y1322580D01*
X4998214Y1338074D01*
X4998214Y1416052D01*
X5037838Y1390144D02*
G01*
X5037838Y1395224D01*
X5042918Y1405638D01*
X5048252Y1410972D01*
X5058666Y1416052D01*
X5079240Y1416052D01*
X5089654Y1410972D01*
X5094988Y1405638D01*
X5100068Y1395224D01*
X5100068Y1384810D01*
X5094988Y1374396D01*
X5084574Y1358902D01*
X5032504Y1307086D01*
X5105402Y1307086D01*
X5194279Y5144495D02*
G01*
X5194279Y5066517D01*
X5199359Y5051023D01*
X5209773Y5040609D01*
X5225521Y5035529D01*
X5235935Y5035529D01*
X5251429Y5040609D01*
X5261843Y5051023D01*
X5266923Y5066517D01*
X5266923Y5144495D01*
X5374111Y5144495D02*
G01*
X5322041Y5035529D01*
X5301213Y5144495D02*
G01*
X5374111Y5144495D01*
D11*
X1981189Y8483622D02*
G01*
X1981189Y6477022D01*
X4991089Y6477022D01*
X4991089Y8483622D01*
X5003789Y8483622D02*
G01*
X5003789Y6477022D01*
X8013689Y6477022D01*
X8013689Y8483622D01*
X1981189Y8483622D02*
G01*
X4991089Y8483622D01*
X5003789Y8483622D02*
G01*
X8013689Y8483622D01*
X5511690Y8856014D02*
G01*
X4495690Y8856014D01*
X5511693Y8731013D02*
G01*
X4495693Y8731013D01*
X4495690Y8731013D02*
G01*
X4495690Y9189011D01*
X5511690Y9189011D01*
X5511690Y8731013D01*
X5978222Y2331735D02*
G01*
X5978222Y2570495D01*
X5978222Y2570495D02*
G01*
X6608142Y2570495D01*
X6608142Y2570495D02*
G01*
X6608142Y2331735D01*
X6608142Y2331735D02*
G01*
X5978222Y2331735D01*
X5978222Y2839735D02*
G01*
X5978222Y3078495D01*
X5978222Y3078495D02*
G01*
X6608142Y3078495D01*
X6608142Y3078495D02*
G01*
X6608142Y2839735D01*
X6608142Y2839735D02*
G01*
X5978222Y2839735D01*
X6608142Y2316495D02*
G01*
X6608142Y2077735D01*
X6608142Y2077735D02*
G01*
X5978222Y2077735D01*
X5978222Y2077735D02*
G01*
X5978222Y2316495D01*
X5978222Y2316495D02*
G01*
X6608142Y2316495D01*
X6608142Y2824495D02*
G01*
X6608142Y2585735D01*
X6608142Y2585735D02*
G01*
X5978222Y2585735D01*
X5978222Y2585735D02*
G01*
X5978222Y2824495D01*
X5978222Y2824495D02*
G01*
X6608142Y2824495D01*
X3387427Y2585735D02*
G01*
X3387427Y2824495D01*
X3387427Y2824495D02*
G01*
X4017347Y2824495D01*
X4017347Y2824495D02*
G01*
X4017347Y2585735D01*
X4017347Y2585735D02*
G01*
X3387427Y2585735D01*
X3387427Y2077735D02*
G01*
X3387427Y2316495D01*
X3387427Y2316495D02*
G01*
X4017347Y2316495D01*
X4017347Y2316495D02*
G01*
X4017347Y2077735D01*
X4017347Y2077735D02*
G01*
X3387427Y2077735D01*
X3393432Y4249412D02*
G01*
X3393432Y4488172D01*
X3393432Y4488172D02*
G01*
X4023352Y4488172D01*
X4023352Y4488172D02*
G01*
X4023352Y4249412D01*
X4023352Y4249412D02*
G01*
X3393432Y4249412D01*
X6614147Y4234172D02*
G01*
X6614147Y3995412D01*
X6614147Y3995412D02*
G01*
X5984227Y3995412D01*
X5984227Y3995412D02*
G01*
X5984227Y4234172D01*
X5984227Y4234172D02*
G01*
X6614147Y4234172D01*
X4023352Y4742169D02*
G01*
X4023352Y4503409D01*
X4023352Y4503409D02*
G01*
X3393432Y4503409D01*
X3393432Y4503409D02*
G01*
X3393432Y4742169D01*
X3393432Y4742169D02*
G01*
X4023352Y4742169D01*
X5984227Y4757409D02*
G01*
X5984227Y4996169D01*
X5984227Y4996169D02*
G01*
X6614147Y4996169D01*
X6614147Y4996169D02*
G01*
X6614147Y4757409D01*
X6614147Y4757409D02*
G01*
X5984227Y4757409D01*
D12*
X4495774Y5994400D02*
G01*
X4495774Y6248400D01*
X5511774Y6248400D01*
X5511774Y5994400D01*
X5321274Y5994400D01*
D13*
X4495774Y5994400D02*
G01*
X5321274Y5994400D01*
D12*
X4432289Y3809992D02*
G01*
X4241789Y3809992D01*
X4241789Y3555992D01*
X5765789Y3555992D01*
X5765789Y3809992D01*
D13*
X5765789Y3809992D02*
G01*
X4432289Y3809992D01*
D11*
X3143580Y6261381D02*
G01*
X3143580Y5981392D01*
X3143580Y5981392D02*
G01*
X3663579Y5981392D01*
D10*
X3619474Y5986195D02*
G01*
X3619474Y6261435D01*
D11*
X3142581Y6121384D02*
G01*
X3047982Y6121384D01*
X3664590Y6121384D02*
G01*
X3759182Y6121384D01*
X3143580Y6261381D02*
G01*
X3663579Y6261381D01*
X3663579Y6261381D02*
G01*
X3663579Y5981392D01*
X6800468Y5968718D02*
G01*
X6800468Y6248707D01*
X6800468Y6248707D02*
G01*
X6280470Y6248707D01*
D10*
X6324574Y6243904D02*
G01*
X6324574Y5968664D01*
D11*
X6801467Y6108715D02*
G01*
X6896066Y6108715D01*
X6279459Y6108715D02*
G01*
X6184866Y6108715D01*
X6800468Y5968718D02*
G01*
X6280470Y5968718D01*
X6280470Y5968718D02*
G01*
X6280470Y6248707D01*
X5978222Y3106432D02*
G01*
X5978222Y3345192D01*
X5978222Y3345192D02*
G01*
X6608142Y3345192D01*
X6608142Y3345192D02*
G01*
X6608142Y3106432D01*
X6608142Y3106432D02*
G01*
X5978222Y3106432D01*
X6614147Y4488172D02*
G01*
X6614147Y4249412D01*
X6614147Y4249412D02*
G01*
X5984227Y4249412D01*
X5984227Y4249412D02*
G01*
X5984227Y4488172D01*
X5984227Y4488172D02*
G01*
X6614147Y4488172D01*
X2999729Y8910342D02*
G01*
X2999729Y9149102D01*
X2999729Y9149102D02*
G01*
X3629649Y9149102D01*
X3629649Y9149102D02*
G01*
X3629649Y8910342D01*
X3629649Y8910342D02*
G01*
X2999729Y8910342D01*
X2999729Y9367542D02*
G01*
X2999729Y9606302D01*
X2999729Y9606302D02*
G01*
X3629649Y9606302D01*
X3629649Y9606302D02*
G01*
X3629649Y9367542D01*
X3629649Y9367542D02*
G01*
X2999729Y9367542D01*
X6365229Y8897642D02*
G01*
X6365229Y9136402D01*
X6365229Y9136402D02*
G01*
X6995149Y9136402D01*
X6995149Y9136402D02*
G01*
X6995149Y8897642D01*
X6995149Y8897642D02*
G01*
X6365229Y8897642D01*
X6365229Y9354842D02*
G01*
X6365229Y9593602D01*
X6365229Y9593602D02*
G01*
X6995149Y9593602D01*
X6995149Y9593602D02*
G01*
X6995149Y9354842D01*
X6995149Y9354842D02*
G01*
X6365229Y9354842D01*
D14*
X5524235Y9550128D02*
G01*
X5016235Y9550128D01*
X5016235Y9296128D01*
X5524235Y9296128D01*
X5524235Y9550128D01*
X4483343Y9296636D02*
G01*
X4991343Y9296636D01*
X4991343Y9550636D01*
X4483343Y9550636D01*
X4483343Y9296636D01*
D12*
X5257789Y9880579D02*
G01*
X5257789Y9629119D01*
X4749789Y9629119D01*
X4749789Y9880579D01*
X5257789Y9880579D01*
X2184374Y6248400D02*
G01*
X2435834Y6248400D01*
X2435834Y5740400D01*
X2184374Y5740400D01*
X2184374Y6248400D01*
X7569174Y6235700D02*
G01*
X7820634Y6235700D01*
X7820634Y5727700D01*
X7569174Y5727700D01*
X7569174Y6235700D01*
D11*
X7425385Y9625581D02*
G01*
X7425385Y8865582D01*
X7695885Y8865582D01*
X7695885Y9625581D01*
X7425885Y9625581D01*
X7581884Y8902664D02*
G01*
X7581884Y8865582D01*
X7581884Y9131663D02*
G01*
X7581884Y9130502D01*
X7581884Y9360669D02*
G01*
X7581884Y9359501D01*
X7581884Y9611580D02*
G01*
X7581884Y9588507D01*
X2556794Y8878282D02*
G01*
X2556794Y9638281D01*
X2286294Y9638281D01*
X2286294Y8878282D01*
X2556294Y8878282D01*
X2400294Y9601200D02*
G01*
X2400294Y9638281D01*
X2400294Y9372201D02*
G01*
X2400294Y9373362D01*
X2400294Y9143194D02*
G01*
X2400294Y9144363D01*
X2400294Y8892283D02*
G01*
X2400294Y8915356D01*
X5317835Y3304364D02*
G01*
X5317835Y3421115D01*
X5317835Y3050364D02*
G01*
X5317835Y3121865D01*
X5317835Y2796364D02*
G01*
X5317835Y2867865D01*
X5317835Y2542364D02*
G01*
X5317835Y2613865D01*
X5317835Y2288364D02*
G01*
X5317835Y2359865D01*
X5317835Y2034364D02*
G01*
X5317835Y2105865D01*
X5317835Y1787230D02*
G01*
X5317835Y1851865D01*
X5317835Y1481114D02*
G01*
X5317835Y1591000D01*
X5317835Y3421115D02*
G01*
X4677836Y3421115D01*
X4677836Y1481114D02*
G01*
X4677836Y1597863D01*
X4677836Y1481114D02*
G01*
X4908936Y1481114D01*
X4677836Y3304367D02*
G01*
X4677836Y3421115D01*
X4677836Y3050367D02*
G01*
X4677836Y3121863D01*
X4677836Y2796367D02*
G01*
X4677836Y2867863D01*
X4677836Y2542367D02*
G01*
X4677836Y2613863D01*
X4677836Y2288367D02*
G01*
X4677836Y2359863D01*
X4677836Y2034367D02*
G01*
X4677836Y2105863D01*
X4677836Y1780367D02*
G01*
X4677836Y1851863D01*
X5317835Y1481114D02*
G01*
X5086736Y1481114D01*
D15*
X5067790Y4989789D02*
G01*
X5067289Y4989819D01*
X5268711Y4989819D01*
X5268711Y3999727D01*
X4738867Y3999727D01*
X4738867Y4989819D01*
X4940289Y4989819D01*
X4939789Y4989789D01*
D16*
G75*
G01*
X4908936Y1481094D02*
G02*
X5086736Y1481135I88900J21D01*
D15*
G75*
G01*
X4939789Y4989789D02*
G03*
X5066789Y4989789I63500J0D01*
D17*
G75*
G01*
X4622790Y5019284D02*
G03*
X4623044Y5019284I127J-12499D01*
D18*
G75*
G01*
X4838690Y4940798D02*
G03*
X4839198Y4940798I254J-29999D01*
D19*
G75*
G01
X5272684Y9239021D02*
G03X5272684Y9239021I-15011J0D01*
G75*
G01
X7766914Y9015578D02*
G03X7766914Y9015578I-15011J0D01*
G75*
G01
X2245309Y9488246D02*
G03X2245309Y9488246I-15011J0D01*
D11*
G75*
G01
X5422189Y1536725D02*
G03X5422189Y1536725I-17958J0D01*
M02*
