G04 Layer: TopLayer*
G04 EasyEDA v6.5.48, 2025-03-25 09:41:14*
G04 1b9fd03e791046f9bebca906f8adb083,878c4c1e0da8487e804687d0af4422f9,10*
G04 Gerber Generator version 0.2*
G04 Scale: 100 percent, Rotated: No, Reflected: No *
G04 Dimensions in millimeters *
G04 leading zeros omitted , absolute positions ,4 integer and 5 decimal *
%FSLAX45Y45*%
%MOMM*%

%ADD10C,0.5000*%
%ADD11C,2.2000*%
%ADD12R,2.2000X2.2000*%
%ADD13R,2.2000X2.0000*%
%ADD14O,1.9999959999999999X2.999994*%
%ADD15R,2.0000X3.0000*%
%ADD16O,1.5999968X2.4999949999999997*%
%ADD17O,1.9999959999999999X2.4999949999999997*%
%ADD18C,2.5000*%
%ADD19C,2.0000*%
%ADD20O,1.9999959999999999X1.9999959999999999*%
%ADD21O,2.4999949999999997X1.9999959999999999*%
%ADD22O,2.4999949999999997X1.5999968*%
%ADD23R,2.5000X2.0000*%
%ADD24C,5.0000*%
%ADD25O,1.5999968X1.9999959999999999*%
%ADD26O,1.9999959999999999X1.5999968*%
%ADD27O,2.1999956000000003X1.5999968*%

%LPD*%
D10*
X7086584Y3670292D02*
G01*
X7086584Y4267192D01*
X5587989Y1943094D02*
G01*
X5587989Y2582666D01*
X5587989Y2959094D01*
X2260594Y4406892D02*
G01*
X2260594Y5118089D01*
X2552700Y4406900D02*
G01*
X2552700Y5118100D01*
X2552694Y5118089D01*
X7531074Y5105400D02*
G01*
X7531084Y3670292D01*
X7086584Y5105389D02*
G01*
X7086584Y4432292D01*
X6553187Y1155697D02*
G01*
X6972300Y1155700D01*
X6476987Y1155697D02*
G01*
X5740389Y1155697D01*
X5562589Y1155697D02*
G01*
X4724387Y1155697D01*
X4546589Y1155697D02*
G01*
X3644892Y1155697D01*
X6007087Y101600D02*
G01*
X6007087Y101600D01*
X6002388Y553057D01*
X5011790Y554837D02*
G01*
X5016489Y550138D01*
X5016489Y101600D01*
X3995790Y554829D02*
G01*
X4000492Y550128D01*
X4000492Y101600D01*
X4394192Y1943094D02*
G01*
X4394192Y2959094D01*
X4216392Y2451094D02*
G01*
X3200392Y2451094D01*
X5791187Y1943094D02*
G01*
X6807187Y1943094D01*
X5003789Y5105389D02*
G01*
X5003789Y5841987D01*
X4241792Y6349987D02*
G01*
X5753087Y6349987D01*
D11*
G01*
X6362395Y647674D03*
G01*
X6362395Y393674D03*
D12*
G01*
X6642404Y393674D03*
D11*
G01*
X6642379Y647700D03*
G01*
X5371800Y647674D03*
G01*
X5371800Y393674D03*
D12*
G01*
X5651809Y393674D03*
D11*
G01*
X5651784Y647700D03*
G01*
X4355800Y647674D03*
G01*
X4355800Y393674D03*
D12*
G01*
X4635809Y393674D03*
D11*
G01*
X4635784Y647700D03*
G01*
X3365205Y647674D03*
G01*
X3365205Y393674D03*
D12*
G01*
X3645214Y393674D03*
D11*
G01*
X3645189Y647700D03*
G01*
X367995Y4597420D03*
G01*
X367995Y4343420D03*
D12*
G01*
X648004Y4343420D03*
D11*
G01*
X648004Y4597420D03*
G01*
X9359574Y4584725D03*
G01*
X9359574Y4330725D03*
D13*
G01*
X9639584Y4330725D03*
D11*
G01*
X9639584Y4584725D03*
D14*
G01*
X5003672Y9017025D03*
G01*
X4749672Y9017025D03*
D15*
G01*
X5257698Y9017000D03*
D11*
G01*
X5785180Y2451100D03*
G01*
X6801180Y2451100D03*
G01*
X5785180Y2959100D03*
G01*
X6801180Y2959100D03*
G01*
X6801180Y2197100D03*
G01*
X5785180Y2197100D03*
G01*
X6801180Y2705100D03*
G01*
X5785180Y2705100D03*
G01*
X3194380Y2705100D03*
G01*
X4210380Y2705100D03*
G01*
X3194380Y2197100D03*
G01*
X4210380Y2197100D03*
G01*
X3200400Y4368800D03*
G01*
X4216400Y4368800D03*
G01*
X6807200Y4114800D03*
G01*
X5791200Y4114800D03*
G01*
X4216400Y4622800D03*
G01*
X3200400Y4622800D03*
G01*
X5791200Y4876800D03*
G01*
X6807200Y4876800D03*
D16*
G01*
X5384774Y6121400D03*
G01*
X5130774Y6121400D03*
G01*
X4876774Y6121400D03*
G01*
X4622774Y6121400D03*
D17*
G01*
X5638800Y3682974D03*
G01*
X5384800Y3682974D03*
G01*
X5130800Y3682974D03*
G01*
X4876800Y3682974D03*
G01*
X4622800Y3682974D03*
G01*
X4368800Y3683000D03*
D18*
G01*
X3863568Y6121400D03*
G01*
X2943580Y6121400D03*
G01*
X6080480Y6108700D03*
G01*
X7000468Y6108700D03*
D11*
G01*
X5785180Y3225800D03*
G01*
X6801180Y3225800D03*
G01*
X6807200Y4368800D03*
G01*
X5791200Y4368800D03*
D19*
G01*
X2806700Y9029725D03*
G01*
X3822700Y9029725D03*
G01*
X2806700Y9486925D03*
G01*
X3822700Y9486925D03*
G01*
X6172200Y9017025D03*
G01*
X7188200Y9017025D03*
G01*
X6172200Y9474225D03*
G01*
X7188200Y9474225D03*
D20*
G01*
X5143500Y9423400D03*
G01*
X5397500Y9423400D03*
G01*
X4864079Y9423389D03*
G01*
X4610079Y9423389D03*
D17*
G01*
X4876800Y9753574D03*
G01*
X5130800Y9753574D03*
D21*
G01*
X2311374Y5867400D03*
G01*
X2311374Y6121400D03*
G01*
X7696174Y5854700D03*
G01*
X7696174Y6108700D03*
D22*
G01*
X7581900Y9474580D03*
G01*
X7581900Y9245574D03*
G01*
X7581900Y9016568D03*
G01*
X2400300Y9029242D03*
G01*
X2400300Y9258249D03*
G01*
X2400300Y9487280D03*
D21*
G01*
X4616729Y3213125D03*
G01*
X4616831Y2959125D03*
G01*
X4616831Y2705125D03*
G01*
X4616831Y2451125D03*
G01*
X4616831Y2197125D03*
G01*
X4616831Y1943125D03*
G01*
X4616831Y1689125D03*
G01*
X5378831Y3213125D03*
G01*
X5378831Y2959125D03*
G01*
X5378831Y2705125D03*
G01*
X5378831Y2451125D03*
G01*
X5378831Y2197125D03*
G01*
X5378831Y1943125D03*
D23*
G01*
X5378831Y1689125D03*
G01*
X4622800Y4876800D03*
D21*
G01*
X4622800Y4622800D03*
G01*
X4622800Y4368800D03*
G01*
X4622800Y4114800D03*
G01*
X5384800Y4876800D03*
G01*
X5384800Y4622800D03*
G01*
X5384800Y4368800D03*
G01*
X5384800Y4114800D03*
D24*
G01*
X2997200Y7899374D03*
G01*
X2997200Y7061174D03*
G01*
X7010374Y7048474D03*
G01*
X7010374Y7899374D03*
D25*
G01*
X5003800Y5105400D03*
G01*
X5003800Y5841974D03*
G01*
X4241800Y6349974D03*
G01*
X5753100Y6349974D03*
G01*
X3644892Y1155697D03*
G01*
X4724389Y1155697D03*
G01*
X5740387Y1155697D03*
G01*
X4546589Y1155697D03*
G01*
X5587989Y1943094D03*
G01*
X5587989Y2959094D03*
G01*
X4394200Y2959100D03*
G01*
X4394200Y1943100D03*
G01*
X5791200Y1943100D03*
G01*
X6807200Y1943100D03*
G01*
X5562589Y1155697D03*
G01*
X6972300Y1155700D03*
G01*
X6553187Y1155697D03*
D26*
G01*
X7086584Y4267192D03*
G01*
X7086574Y3670300D03*
G01*
X7086584Y4432292D03*
G01*
X7086574Y5105400D03*
G01*
X7531084Y3670292D03*
G01*
X7531074Y5105400D03*
G01*
X2260594Y5118089D03*
G01*
X2260594Y4406892D03*
D27*
G01*
X3995800Y554837D03*
D26*
G01*
X4000500Y101600D03*
G01*
X5011800Y554837D03*
G01*
X5016500Y101600D03*
G01*
X6002400Y553059D03*
G01*
X6007100Y101600D03*
G01*
X3200400Y2451100D03*
G01*
X4216400Y2451100D03*
D25*
G01*
X6388087Y1155697D03*
D24*
G01*
X6515087Y7480284D03*
G01*
X3530592Y7480284D03*
D26*
G01*
X2552694Y4406892D03*
G01*
X2552694Y5118089D03*
M02*
